<mxfile host="65bd71144e">
    <diagram id="kxSos3Av9qnZyXn7LfFa" name="PAP-01">
        <mxGraphModel dx="1118" dy="823" grid="1" gridSize="10" guides="1" tooltips="1" connect="1" arrows="1" fold="1" page="1" pageScale="1" pageWidth="827" pageHeight="1169" math="0" shadow="0">
            <root>
                <mxCell id="0"/>
                <mxCell id="1" parent="0"/>
                <mxCell id="2" value="Programm- Ablauf- Plan&lt;br&gt;" style="rounded=1;whiteSpace=wrap;html=1;" vertex="1" parent="1">
                    <mxGeometry x="284" y="10" width="260" height="230" as="geometry"/>
                </mxCell>
                <mxCell id="11" style="edgeStyle=none;html=1;fontSize=15;fillColor=#60a917;strokeColor=#5AED00;" edge="1" parent="1" source="3" target="8">
                    <mxGeometry relative="1" as="geometry"/>
                </mxCell>
                <mxCell id="3" value="&lt;font style=&quot;font-size: 35px&quot;&gt;Start&lt;/font&gt;" style="rounded=1;whiteSpace=wrap;html=1;" vertex="1" parent="1">
                    <mxGeometry x="20" y="317.5" width="110" height="230" as="geometry"/>
                </mxCell>
                <mxCell id="4" value="&lt;font style=&quot;font-size: 35px&quot;&gt;Stop&lt;/font&gt;" style="rounded=1;whiteSpace=wrap;html=1;" vertex="1" parent="1">
                    <mxGeometry x="680" y="317.5" width="90" height="230" as="geometry"/>
                </mxCell>
                <mxCell id="12" style="edgeStyle=none;html=1;exitX=1;exitY=0.5;exitDx=0;exitDy=0;entryX=0;entryY=0.5;entryDx=0;entryDy=0;fontSize=15;fillColor=#60a917;strokeColor=#5CF200;" edge="1" parent="1" source="8" target="9">
                    <mxGeometry relative="1" as="geometry"/>
                </mxCell>
                <mxCell id="8" value="&lt;font style=&quot;font-size: 15px&quot;&gt;firstName = &quot;Max&quot;&lt;/font&gt;" style="rhombus;whiteSpace=wrap;html=1;fontSize=35;" vertex="1" parent="1">
                    <mxGeometry x="190" y="395" width="190" height="75" as="geometry"/>
                </mxCell>
                <mxCell id="14" style="edgeStyle=none;html=1;exitX=1;exitY=0.5;exitDx=0;exitDy=0;entryX=0;entryY=0.5;entryDx=0;entryDy=0;fontSize=15;fillColor=#60a917;strokeColor=#60FC00;" edge="1" parent="1" source="9" target="4">
                    <mxGeometry relative="1" as="geometry"/>
                </mxCell>
                <mxCell id="9" value="&lt;font style=&quot;font-size: 15px&quot;&gt;Ausgabe firstName&lt;/font&gt;" style="rhombus;whiteSpace=wrap;html=1;fontSize=35;" vertex="1" parent="1">
                    <mxGeometry x="430" y="395" width="190" height="75" as="geometry"/>
                </mxCell>
            </root>
        </mxGraphModel>
    </diagram>
    <diagram name=" PAP-02" id="bUuWmr4WStV_Xn5Nhr0b">
        <mxGraphModel dx="1118" dy="823" grid="1" gridSize="10" guides="1" tooltips="1" connect="1" arrows="1" fold="1" page="1" pageScale="1" pageWidth="827" pageHeight="1169" math="0" shadow="0">
            <root>
                <mxCell id="tYy62fGIb39xd7KX_dm--0"/>
                <mxCell id="tYy62fGIb39xd7KX_dm--1" parent="tYy62fGIb39xd7KX_dm--0"/>
                <mxCell id="tYy62fGIb39xd7KX_dm--2" value="Programm- Ablauf- Plan&lt;br&gt;" style="rounded=1;whiteSpace=wrap;html=1;" vertex="1" parent="tYy62fGIb39xd7KX_dm--1">
                    <mxGeometry x="284" y="10" width="260" height="230" as="geometry"/>
                </mxCell>
                <mxCell id="tYy62fGIb39xd7KX_dm--3" style="edgeStyle=none;html=1;fontSize=15;fillColor=#60a917;strokeColor=#5AED00;" edge="1" parent="tYy62fGIb39xd7KX_dm--1" source="tYy62fGIb39xd7KX_dm--4" target="tYy62fGIb39xd7KX_dm--7">
                    <mxGeometry relative="1" as="geometry"/>
                </mxCell>
                <mxCell id="tYy62fGIb39xd7KX_dm--13" style="edgeStyle=none;html=1;entryX=0.211;entryY=0.267;entryDx=0;entryDy=0;entryPerimeter=0;fontSize=14;strokeColor=#5CF200;" edge="1" parent="tYy62fGIb39xd7KX_dm--1" source="tYy62fGIb39xd7KX_dm--4" target="tYy62fGIb39xd7KX_dm--10">
                    <mxGeometry relative="1" as="geometry"/>
                </mxCell>
                <mxCell id="tYy62fGIb39xd7KX_dm--4" value="&lt;font style=&quot;font-size: 35px&quot;&gt;Start&lt;/font&gt;" style="rounded=1;whiteSpace=wrap;html=1;" vertex="1" parent="tYy62fGIb39xd7KX_dm--1">
                    <mxGeometry y="317.5" width="80" height="230" as="geometry"/>
                </mxCell>
                <mxCell id="tYy62fGIb39xd7KX_dm--5" value="&lt;font style=&quot;font-size: 35px&quot;&gt;Stop&lt;/font&gt;" style="rounded=1;whiteSpace=wrap;html=1;" vertex="1" parent="tYy62fGIb39xd7KX_dm--1">
                    <mxGeometry x="700" y="317.5" width="127" height="230" as="geometry"/>
                </mxCell>
                <mxCell id="tYy62fGIb39xd7KX_dm--6" style="edgeStyle=none;html=1;exitX=1;exitY=0.5;exitDx=0;exitDy=0;entryX=0;entryY=0.5;entryDx=0;entryDy=0;fontSize=15;fillColor=#60a917;strokeColor=#5CF200;" edge="1" parent="tYy62fGIb39xd7KX_dm--1" source="tYy62fGIb39xd7KX_dm--7" target="tYy62fGIb39xd7KX_dm--9">
                    <mxGeometry relative="1" as="geometry"/>
                </mxCell>
                <mxCell id="tYy62fGIb39xd7KX_dm--7" value="&lt;font style=&quot;font-size: 15px&quot;&gt;firstName = &quot;Max&quot;&lt;/font&gt;" style="rhombus;whiteSpace=wrap;html=1;fontSize=35;" vertex="1" parent="tYy62fGIb39xd7KX_dm--1">
                    <mxGeometry x="140" y="330" width="190" height="75" as="geometry"/>
                </mxCell>
                <mxCell id="tYy62fGIb39xd7KX_dm--8" style="edgeStyle=none;html=1;exitX=1;exitY=0.5;exitDx=0;exitDy=0;fontSize=15;fillColor=#60a917;strokeColor=#60FC00;" edge="1" parent="tYy62fGIb39xd7KX_dm--1" source="tYy62fGIb39xd7KX_dm--9">
                    <mxGeometry relative="1" as="geometry">
                        <mxPoint x="700" y="368" as="targetPoint"/>
                    </mxGeometry>
                </mxCell>
                <mxCell id="tYy62fGIb39xd7KX_dm--9" value="&lt;font style=&quot;font-size: 15px&quot;&gt;Ausgabe firstName&lt;/font&gt;" style="rhombus;whiteSpace=wrap;html=1;fontSize=35;" vertex="1" parent="tYy62fGIb39xd7KX_dm--1">
                    <mxGeometry x="354" y="330" width="190" height="75" as="geometry"/>
                </mxCell>
                <mxCell id="tYy62fGIb39xd7KX_dm--15" style="edgeStyle=none;html=1;entryX=0;entryY=0.5;entryDx=0;entryDy=0;fontSize=14;strokeColor=#5CF200;" edge="1" parent="tYy62fGIb39xd7KX_dm--1" source="tYy62fGIb39xd7KX_dm--10" target="tYy62fGIb39xd7KX_dm--14">
                    <mxGeometry relative="1" as="geometry"/>
                </mxCell>
                <mxCell id="tYy62fGIb39xd7KX_dm--10" value="&lt;font style=&quot;font-size: 14px&quot;&gt;familyName = &quot;MÃ¼tze&quot;&lt;/font&gt;" style="rhombus;whiteSpace=wrap;html=1;fontSize=35;" vertex="1" parent="tYy62fGIb39xd7KX_dm--1">
                    <mxGeometry x="140" y="450" width="190" height="75" as="geometry"/>
                </mxCell>
                <mxCell id="tYy62fGIb39xd7KX_dm--16" style="edgeStyle=none;html=1;fontSize=14;strokeColor=#5CF200;entryX=0;entryY=0.75;entryDx=0;entryDy=0;" edge="1" parent="tYy62fGIb39xd7KX_dm--1" source="tYy62fGIb39xd7KX_dm--14" target="tYy62fGIb39xd7KX_dm--5">
                    <mxGeometry relative="1" as="geometry"/>
                </mxCell>
                <mxCell id="tYy62fGIb39xd7KX_dm--14" value="&lt;span style=&quot;font-size: 14px&quot;&gt;Ausgabe familyName&lt;/span&gt;" style="rhombus;whiteSpace=wrap;html=1;fontSize=35;" vertex="1" parent="tYy62fGIb39xd7KX_dm--1">
                    <mxGeometry x="354" y="450" width="190" height="75" as="geometry"/>
                </mxCell>
            </root>
        </mxGraphModel>
    </diagram>
</mxfile>